<?xml version="1.0" standalone="no"?>
<!DOCTYPE svg PUBLIC "-//W3C//DTD SVG 20010904//EN"
 "http://www.w3.org/TR/2001/REC-SVG-20010904/DTD/svg10.dtd">
<svg version="1.0" xmlns="http://www.w3.org/2000/svg"
 width="682.000000pt" height="682.000000pt" viewBox="0 0 682.000000 682.000000"
 preserveAspectRatio="xMidYMid meet">

<g transform="translate(0.000000,682.000000) scale(0.100000,-0.100000)"
fill="#000000" stroke="none">
<path d="M2234 4943 c-208 -214 -473 -485 -589 -603 -464 -474 -1108 -1139
-1159 -1196 l-36 -42 18 -42 17 -42 210 219 c116 120 312 324 435 452 124 129
362 375 530 545 167 171 368 376 445 456 77 80 231 237 342 350 l202 205 123
-31 c106 -27 497 -138 1988 -567 162 -47 419 -120 570 -162 151 -42 320 -90
375 -106 54 -15 101 -26 103 -24 2 2 1 18 -3 35 -4 20 -15 34 -32 41 -46 17
-377 113 -1173 338 -118 33 -269 77 -335 96 -141 42 -1365 395 -1510 436 -55
16 -110 28 -121 29 -15 0 -133 -114 -400 -387z"/>
<path d="M2985 4668 c-44 -12 -82 -22 -84 -24 -2 -2 6 -40 19 -84 16 -58 27
-80 39 -80 17 0 161 36 166 42 5 5 -48 168 -54 167 -3 -1 -42 -10 -86 -21z"/>
<path d="M2743 4606 c-45 -12 -85 -24 -88 -28 -4 -4 5 -43 19 -86 l27 -80 62
14 c34 8 76 19 93 25 l32 10 -24 76 c-13 42 -27 80 -31 83 -5 4 -45 -2 -90
-14z"/>
<path d="M3106 4458 c-21 -5 -63 -15 -92 -24 l-52 -15 25 -82 c14 -45 29 -86
34 -91 8 -9 145 19 171 35 8 5 5 29 -12 86 -30 103 -28 101 -74 91z"/>
<path d="M2783 4378 c-35 -11 -63 -27 -63 -34 0 -7 12 -49 26 -94 20 -65 28
-80 42 -76 9 3 49 13 87 22 39 9 73 20 78 24 4 3 -5 46 -19 93 -27 85 -28 87
-58 87 -17 -1 -59 -10 -93 -22z"/>
<path d="M5260 3754 c-80 -240 -146 -440 -148 -445 -5 -14 36 -11 93 6 42 13
433 114 812 210 51 13 99 28 108 33 18 9 -9 34 -361 333 -100 85 -218 186
-263 224 -46 39 -86 71 -89 72 -4 1 -72 -194 -152 -433z m325 186 c72 -61 189
-161 261 -223 73 -62 129 -115 125 -119 -10 -11 -733 -199 -739 -193 -5 5 212
645 218 645 3 0 64 -50 135 -110z"/>
<path d="M4505 3988 c-104 -27 -279 -72 -388 -100 l-199 -51 6 -31 c4 -17 29
-103 57 -191 68 -216 91 -289 135 -432 30 -100 41 -123 56 -123 22 0 757 186
765 194 6 6 -11 65 -97 336 -32 102 -73 235 -90 295 -51 173 -23 161 -245 103z
m181 -183 c57 -174 155 -497 152 -500 -2 -1 -32 -9 -68 -17 -36 -9 -175 -43
-309 -77 -134 -34 -244 -61 -246 -59 -3 3 -70 218 -107 338 -10 36 -35 114
-54 174 -19 60 -31 112 -27 117 4 4 136 39 293 79 156 39 287 73 289 76 19 19
39 -14 77 -131z"/>
<path d="M3159 3667 c-116 -39 -199 -112 -248 -216 -23 -49 -26 -69 -26 -157
0 -95 2 -104 37 -175 62 -125 156 -205 287 -241 242 -67 476 58 537 287 46
170 -35 362 -194 464 -103 65 -267 81 -393 38z m316 -95 c69 -34 138 -104 165
-165 32 -73 43 -153 30 -206 -41 -162 -166 -256 -345 -256 -69 0 -89 4 -145
31 -111 54 -175 132 -206 254 -34 135 35 272 176 345 55 29 89 34 180 31 71
-3 95 -8 145 -34z"/>
<path d="M2034 3373 c-3 -15 -14 -57 -24 -93 -19 -66 -199 -766 -207 -807 -5
-22 -5 -22 58 -7 35 8 138 34 229 59 91 24 255 67 365 95 314 80 355 92 355
104 0 6 -16 25 -34 41 -19 17 -186 163 -371 325 -184 162 -342 298 -350 303
-11 6 -16 0 -21 -20z m285 -314 c90 -79 201 -177 247 -217 46 -40 84 -77 84
-82 0 -5 -8 -11 -17 -14 -39 -11 -261 -69 -480 -125 -217 -54 -233 -57 -233
-39 0 11 16 81 36 156 19 75 53 207 75 292 22 85 45 172 50 194 l10 39 32 -30
c18 -17 106 -95 196 -174z"/>
<path d="M6165 3144 c-66 -19 -163 -46 -215 -61 -52 -14 -99 -30 -104 -34 -24
-21 11 -17 135 17 74 20 174 47 222 59 95 25 106 30 91 44 -5 5 -60 -5 -129
-25z"/>
<path d="M869 3027 c-159 -58 -259 -180 -275 -337 -22 -220 145 -418 383 -452
203 -29 388 62 465 230 93 204 -4 443 -222 546 -58 27 -76 31 -175 34 -95 2
-119 -1 -176 -21z m323 -94 c65 -35 140 -111 168 -169 34 -68 38 -175 10 -248
-27 -71 -92 -141 -165 -176 -44 -22 -63 -25 -165 -25 -101 0 -120 3 -159 23
-63 34 -139 109 -169 167 -35 69 -42 174 -16 246 24 66 101 152 165 185 97 49
238 47 331 -3z"/>
<path d="M5490 2954 c-63 -18 -168 -48 -232 -65 -65 -17 -118 -35 -118 -40 0
-16 35 -9 256 51 273 76 254 70 254 81 0 15 -39 9 -160 -27z"/>
<path d="M4771 2941 c-11 -7 -11 -17 2 -62 9 -29 14 -55 12 -58 -3 -2 -22 -7
-42 -10 -24 -4 -38 -12 -38 -21 0 -12 12 -15 51 -13 52 2 52 2 58 -32 5 -26
12 -35 26 -35 27 0 26 18 -11 130 -35 107 -39 113 -58 101z"/>
<path d="M4567 2855 c-49 -13 -91 -26 -94 -29 -21 -20 49 -15 145 10 48 13 20
-69 -53 -152 -44 -51 -49 -68 -17 -57 57 20 128 131 134 209 4 48 -3 50 -115
19z"/>
<path d="M4763 2680 c-60 -12 -122 -47 -135 -76 -16 -34 11 -91 48 -100 69
-18 207 25 224 70 15 39 -6 85 -46 102 -18 8 -37 14 -41 13 -4 -1 -27 -5 -50
-9z m92 -54 c24 -36 6 -62 -57 -81 -63 -18 -87 -19 -110 -1 -53 40 15 103 114
105 29 1 41 -4 53 -23z"/>
<path d="M3702 2672 c-10 -7 -9 -17 3 -51 21 -60 19 -67 -16 -77 -42 -12 -37
-29 9 -29 41 0 52 -9 52 -42 0 -18 -6 -23 -25 -23 -16 0 -25 -6 -25 -16 0 -13
7 -15 30 -10 26 5 32 2 41 -21 5 -14 8 -27 7 -28 -2 -1 -71 -22 -155 -45 -84
-24 -150 -47 -147 -52 8 -13 26 -10 163 27 71 19 133 35 138 35 5 0 17 -25 27
-55 18 -59 25 -68 45 -55 11 6 9 24 -12 91 -88 287 -111 359 -116 359 -3 0
-12 -4 -19 -8z"/>
<path d="M3490 2584 c-41 -13 -80 -26 -87 -28 -8 -3 -4 -27 13 -83 14 -43 29
-81 33 -86 7 -7 201 34 201 43 -1 26 -20 28 -94 9 -43 -11 -79 -19 -81 -17 -1
2 -12 24 -23 50 -25 57 -23 59 77 87 82 23 86 25 76 40 -9 15 -29 13 -115 -15z"/>
<path d="M4198 2588 c-37 -10 -47 -21 -30 -32 12 -7 103 18 105 29 3 14 -31
15 -75 3z"/>
<path d="M2485 2326 c-22 -8 -79 -24 -126 -36 -48 -12 -92 -25 -97 -29 -13 -8
32 -163 52 -180 10 -8 27 -8 66 0 28 6 55 7 59 3 7 -8 31 -84 31 -97 0 -4 -45
-20 -100 -37 -55 -18 -100 -36 -100 -41 0 -15 19 -11 176 33 82 23 178 49 214
58 42 11 65 21 65 31 0 17 -16 15 -123 -18 -45 -14 -85 -23 -89 -20 -3 3 -11
31 -18 61 l-13 55 64 21 c35 12 64 26 64 31 0 14 -23 11 -141 -22 -61 -17
-116 -28 -123 -26 -11 4 -46 99 -46 124 0 6 15 13 33 17 69 13 218 61 218 71
0 15 -22 16 -66 1z"/>
<path d="M3045 2288 c-16 -5 -36 -12 -44 -14 -10 -3 -11 -8 -4 -15 14 -14 123
11 123 28 0 15 -32 16 -75 1z"/>
<path d="M1860 2004 c-25 -7 -130 -37 -235 -65 -104 -28 -194 -55 -199 -60
-18 -16 2 -20 45 -9 188 48 479 134 479 141 0 13 -38 10 -90 -7z"/>
<path d="M1105 1794 c-326 -89 -384 -107 -379 -116 7 -12 29 -7 249 53 232 64
246 69 240 80 -8 11 -2 12 -110 -17z"/>
</g>
</svg>
